# xmcd CD database file
# Copyright (C) 1993-1998 Ti Kan
#
# Track frame offsets:
#  150
#  22530
#  42147
#  55732
#  75580
#  100177
#  123757
#  132662
#  154325
#
# Disc length: 2537 seconds
#
# Revision: 1
# Processed by: cddbd v1.4b41PL1 Copyright (c) Steve Scherf et al.
# Submitted via: CDWizzard Release:4.35
#
DISCID=6309e709
DTITLE=Achilla Orru - Apaa-Idomo
DYEAR=1900
DGENRE=
TTITLE0=Nyakone
TTITLE1=Riti
TTITLE2=Ellena
TTITLE3=Oyomo Cwiny Mea
TTITLE4=Dunia
TTITLE5=Stella
TTITLE6=Amoi
TTITLE7=Nyamara
TTITLE8=Miziki Ya Leo
EXTD=
EXTT0=
EXTT1=
EXTT2=
EXTT3=
EXTT4=
EXTT5=
EXTT6=
EXTT7=
EXTT8=
PLAYORDER=
